<svg xmlns="http://www.w3.org/2000/svg" xmlns:xlink="http://www.w3.org/1999/xlink" version="1.1" x="0px" y="0px" viewBox="0 0 100 125" enable-background="new 0 0 100 100" xml:space="preserve"><g fill="#3186A5" stroke="none"><path d="M96.765,90.108c-2.77-6.228-16.288-10.349-25.27-14.218c-8.982-3.869-7.755-6.215-8.078-9.423  c-0.006-0.064-0.012-0.129-0.018-0.193c3.221-0.934,8.496-3.068,11.226-7.129c3.862-5.747,2.826-13.188,3.065-17.112  c0.24-3.923,0.428-12.793-1.261-19.623c-1.688-6.83-3.837-13.2-7.83-16.736c-3.993-3.536-7.179-3.284-9.119-2.713  c-0.156-0.578-0.574-1.52-1.691-1.967C56.117,0.325,47.118-1.616,38.624,2.88C30.13,7.376,26.582,16.377,24.446,24.641  c-2.136,8.264-3.233,17.265-1.255,27.533c1.746,9.062,9.652,12.286,13.752,13.343c-0.018,0.326-0.041,0.645-0.072,0.951  c-0.323,3.208,0.622,5.554-8.36,9.423c-8.982,3.869-22.5,7.99-25.27,14.218C0.471,96.336,1.578,100,1.578,100h96.841  C98.418,100,99.535,96.336,96.765,90.108z"/></g></svg>