<svg xmlns="http://www.w3.org/2000/svg" xmlns:xlink="http://www.w3.org/1999/xlink" version="1.1" x="0px" y="0px" viewBox="0 0 100 125" enable-background="new 0 0 100 100" xml:space="preserve"><g fill="#3186A5" stroke="none"><path d="M98.071,88.469c-2.847-6.402-16.743-10.638-25.976-14.615c-9.233-3.977-7.971-6.388-8.303-9.687  c-0.045-0.452-0.075-0.933-0.093-1.426c3.168-2.734,5.76-6.482,7.437-10.809c0,0,0.088-0.22,0.113-0.287  c0.354-0.94,0.668-1.92,0.938-2.919c2.117-0.418,3.35-2.665,3.821-4.743c0.476-0.841,1.465-2.914,1.238-5.266  c-0.292-3.028-1.544-4.427-2.95-5.013c0.002-0.182,0.003-0.355,0.003-0.525c0-3.855-0.367-9.402-1.092-13.048  c-0.155-1.006-0.388-2.019-0.691-3.013c-1.363-4.467-4.214-8.481-8.025-11.304c-3.934-2.913-9.496-4.452-14.437-4.452  c-4.941,0-10.504,1.539-14.437,4.452c-3.811,2.823-6.662,6.837-8.025,11.304c-0.303,0.994-0.536,2.007-0.691,3.013  c-0.725,3.645-1.092,9.191-1.092,13.048c0,0.157,0.001,0.316,0.003,0.482c-1.449,0.559-2.756,1.952-3.056,5.055  c-0.227,2.352,0.762,4.425,1.238,5.266c0.479,2.114,1.747,4.403,3.932,4.763c0.271,1.004,0.59,1.99,0.948,2.938  c0.023,0.062,0.048,0.122,0.072,0.183l0.033,0.082c1.71,4.403,4.369,8.204,7.616,10.946c-0.019,0.439-0.047,0.866-0.088,1.271  c-0.332,3.298,0.639,5.71-8.594,9.687c-9.233,3.977-23.129,8.213-25.976,14.615c-2.847,6.401-1.71,10.168-1.71,10.168h99.547  C99.771,98.636,100.919,94.87,98.071,88.469z"/></g></svg>