<?xml version="1.0" encoding="utf-8"?>
<!-- Generator: Adobe Illustrator 17.0.0, SVG Export Plug-In . SVG Version: 6.00 Build 0)  -->
<!DOCTYPE svg PUBLIC "-//W3C//DTD SVG 1.1//EN" "http://www.w3.org/Graphics/SVG/1.1/DTD/svg11.dtd">
<svg version="1.1" id="Layer_1" xmlns="http://www.w3.org/2000/svg" xmlns:xlink="http://www.w3.org/1999/xlink" x="0px" y="0px"
	 width="25px" height="25px" viewBox="0 0 25 25" enable-background="new 0 0 25 25" xml:space="preserve">
<g id="profile__icon">
	<path d="M21.078,17.647c-1.382-0.614-3.434-2.197-6.471-2.741c0.777-0.831,1.365-2.131,1.969-3.672
		c0.35-0.892,0.29-1.653,0.29-2.737c0-0.8,0.151-2.084-0.048-2.79c-0.67-2.385-2.363-3.043-4.346-3.043
		c-1.985,0-3.679,0.661-4.348,3.05C7.928,6.419,8.079,7.7,8.079,8.498c0,1.086-0.059,1.849,0.292,2.743
		c0.609,1.548,1.189,2.846,1.962,3.674c-3.013,0.554-5.049,2.125-6.422,2.737c-2.842,1.267-2.856,2.655-2.856,2.655v2.357
		l22.888-0.003v-2.354C23.944,20.308,23.931,18.915,21.078,17.647z M19.006,21.343h-5.17v-2.111h5.17V21.343z"/>
</g>
</svg>
