<svg xmlns="http://www.w3.org/2000/svg" xmlns:xlink="http://www.w3.org/1999/xlink" version="1.1" x="0px" y="0px" viewBox="0 0 128 160" style="enable-background:new 0 0 128 128;" xml:space="preserve"><g><path d="M58.3,60.4L49.7,69l-3-3c-1-1-2.7-1-3.8,0c-1,1-1,2.7,0,3.8l4.8,4.8c0.5,0.5,1.2,0.8,1.9,0.8c0.7,0,1.4-0.3,1.9-0.8   l10.5-10.5c1-1,1-2.7,0-3.8C61.1,59.4,59.4,59.4,58.3,60.4z"/><circle cx="97.8" cy="44.9" r="4.8"/><circle cx="75.2" cy="44.9" r="4.8"/><circle cx="52.5" cy="44.9" r="4.8"/><circle cx="29.9" cy="44.9" r="4.8"/><circle cx="97.8" cy="67.5" r="4.8"/><circle cx="75.2" cy="67.5" r="4.8"/><circle cx="29.9" cy="67.5" r="4.8"/><circle cx="97.8" cy="90.2" r="4.8"/><circle cx="75.2" cy="90.2" r="4.8"/><circle cx="52.5" cy="90.2" r="4.8"/><circle cx="29.9" cy="90.2" r="4.8"/><path d="M114.7,14.3H97.1v-2c0-2.9-2.3-5.2-5.2-5.2c-2.9,0-5.2,2.3-5.2,5.2v2H69.2v-2c0-2.9-2.3-5.2-5.2-5.2v0c0,0,0,0,0,0   c0,0,0,0,0,0v0c-2.9,0-5.2,2.4-5.2,5.2v2H41.3v-2c0-2.9-2.3-5.2-5.2-5.2c-2.9,0-5.2,2.3-5.2,5.2v2H13.3c-6.6,0-12,5.4-12,12V109   c0,6.6,5.4,12,12,12H64h0h50.7c6.6,0,12-5.4,12-12V26.3C126.7,19.7,121.3,14.3,114.7,14.3z M116.2,109c0,0.8-0.7,1.5-1.5,1.5H64h0   H13.3c-0.8,0-1.5-0.7-1.5-1.5V26.3c0-0.8,0.7-1.5,1.5-1.5h17.5v2c0,2.9,2.3,5.2,5.2,5.2c2.9,0,5.2-2.3,5.2-5.2v-2h17.5v2   c0,2.9,2.3,5.2,5.2,5.2v0c0,0,0,0,0,0c0,0,0,0,0,0v0c2.9,0,5.2-2.4,5.2-5.2v-2h17.5v2c0,2.9,2.3,5.2,5.2,5.2c2.9,0,5.2-2.3,5.2-5.2   v-2h17.5c0.8,0,1.5,0.7,1.5,1.5V109z"/></g></svg>